<svg width="32" height="32" viewBox="0 0 32 32" fill="none" xmlns="http://www.w3.org/2000/svg">
<path d="M16 10.2188C15.0656 10.2188 14.1875 10.5812 13.525 11.2437C13.1994 11.5684 12.9413 11.9542 12.7654 12.3789C12.5895 12.8037 12.4993 13.259 12.5 13.7188C12.5 14.6531 12.8656 15.5312 13.525 16.1938C13.8496 16.5193 14.2354 16.7775 14.6602 16.9534C15.0849 17.1293 15.5403 17.2195 16 17.2188C16.9344 17.2188 17.8125 16.8531 18.475 16.1938C19.1375 15.5312 19.5 14.6531 19.5 13.7188C19.5 12.7844 19.1375 11.9062 18.475 11.2437C17.8125 10.5812 16.9344 10.2188 16 10.2188ZM26.7062 9.03438C26.1179 7.67775 25.2697 6.44944 24.2094 5.41875C23.1456 4.37875 21.8915 3.55331 20.5156 2.9875C19.0844 2.39375 17.5656 2.09375 16 2.09375C14.4344 2.09375 12.9156 2.39375 11.4844 2.98438C10.1 3.55625 8.85938 4.375 7.79063 5.41563C6.73101 6.44689 5.88286 7.67506 5.29375 9.03125C4.68437 10.4375 4.375 11.9312 4.375 13.4688C4.375 15.675 4.90313 17.8719 5.94063 19.9906C6.775 21.6938 7.94063 23.3531 9.40938 24.9312C11.9188 27.625 14.55 29.2719 15.2969 29.7125C15.5089 29.8377 15.7507 29.9036 15.9969 29.9031C16.2406 29.9031 16.4812 29.8406 16.6969 29.7125C17.4437 29.2719 20.075 27.625 22.5844 24.9312C24.0531 23.3562 25.2188 21.6938 26.0531 19.9906C27.0969 17.875 27.625 15.6812 27.625 13.4719C27.625 11.9344 27.3156 10.4406 26.7062 9.03438ZM16 19.2188C12.9625 19.2188 10.5 16.7563 10.5 13.7188C10.5 10.6812 12.9625 8.21875 16 8.21875C19.0375 8.21875 21.5 10.6812 21.5 13.7188C21.5 16.7563 19.0375 19.2188 16 19.2188Z" fill="#1890FF"/>
</svg>
