<svg width="36" height="36" viewBox="0 0 36 36" fill="none" xmlns="http://www.w3.org/2000/svg">
<path d="M18 0.5C8.33594 0.5 0.5 8.33594 0.5 18C0.5 27.6641 8.33594 35.5 18 35.5C27.6641 35.5 35.5 27.6641 35.5 18C35.5 8.33594 27.6641 0.5 18 0.5ZM23.6289 18.2695L15.0977 24.4766C15.0509 24.5102 14.9958 24.5302 14.9383 24.5346C14.8809 24.5389 14.8234 24.5273 14.7721 24.501C14.7208 24.4748 14.6778 24.4349 14.6477 24.3858C14.6176 24.3367 14.6017 24.2803 14.6016 24.2227V11.8164C14.6014 11.7587 14.6172 11.7021 14.6472 11.6528C14.6772 11.6035 14.7203 11.5635 14.7717 11.5372C14.8231 11.5109 14.8807 11.4994 14.9382 11.5038C14.9958 11.5083 15.051 11.5286 15.0977 11.5625L23.6289 17.7656C23.6692 17.7941 23.7021 17.8319 23.7248 17.8757C23.7475 17.9196 23.7593 17.9682 23.7593 18.0176C23.7593 18.0669 23.7475 18.1156 23.7248 18.1594C23.7021 18.2033 23.6692 18.241 23.6289 18.2695Z" fill="white"/>
</svg>
