<svg width="32" height="33" viewBox="0 0 32 33" fill="none" xmlns="http://www.w3.org/2000/svg">
<circle cx="16" cy="16.5938" r="16" fill="#F5F5F5"/>
<path d="M15.4374 9.99414H16.5624C16.6624 9.99414 16.7124 10.0439 16.7124 10.1435V23.2873C16.7124 23.3869 16.6624 23.4367 16.5624 23.4367H15.4374C15.3374 23.4367 15.2874 23.3869 15.2874 23.2873V10.1435C15.2874 10.0439 15.3374 9.99414 15.4374 9.99414Z" fill="#595959"/>
<path d="M9.6998 16.0059H22.2998C22.3998 16.0059 22.4498 16.0556 22.4498 16.1552V17.2754C22.4498 17.375 22.3998 17.4248 22.2998 17.4248H9.6998C9.5998 17.4248 9.5498 17.375 9.5498 17.2754V16.1552C9.5498 16.0556 9.5998 16.0059 9.6998 16.0059Z" fill="#595959"/>
</svg>
