<svg width="32" height="32" viewBox="0 0 32 32" fill="none" xmlns="http://www.w3.org/2000/svg">
<path d="M18.875 21.625H6.5625C6.04431 21.625 5.625 22.0443 5.625 22.5625C5.625 23.0807 6.04431 23.5 6.5625 23.5H18.875C19.9086 23.5 20.75 24.3414 20.75 25.375C20.75 26.4086 19.9086 27.25 18.875 27.25C17.8414 27.25 17 26.4086 17 25.375C17 24.8568 16.5807 24.4375 16.0625 24.4375C15.5443 24.4375 15.125 24.8568 15.125 25.375C15.125 27.4432 16.8068 29.125 18.875 29.125C20.9432 29.125 22.625 27.4432 22.625 25.375C22.625 23.3068 20.9432 21.625 18.875 21.625ZM2.8125 16H15.125C17.1932 16 18.875 14.3182 18.875 12.25C18.875 10.1818 17.1932 8.5 15.125 8.5C13.0568 8.5 11.375 10.1818 11.375 12.25C11.375 12.7682 11.7943 13.1875 12.3125 13.1875C12.8307 13.1875 13.25 12.7682 13.25 12.25C13.25 11.2164 14.0914 10.375 15.125 10.375C16.1586 10.375 17 11.2164 17 12.25C17 13.2836 16.1586 14.125 15.125 14.125H2.8125C2.29431 14.125 1.875 14.5443 1.875 15.0625C1.875 15.5807 2.29431 16 2.8125 16ZM27.3125 10.375C24.7279 10.375 22.625 12.4779 22.625 15.0625C22.625 15.5807 23.0443 16 23.5625 16C24.0807 16 24.5 15.5807 24.5 15.0625C24.5 13.5116 25.7616 12.25 27.3125 12.25C28.8634 12.25 30.125 13.5116 30.125 15.0625C30.125 16.6134 28.8634 17.875 27.3125 17.875H0.9375C0.419312 17.875 0 18.2943 0 18.8125C0 19.3307 0.419312 19.75 0.9375 19.75H27.3125C29.8971 19.75 32 17.6471 32 15.0625C32 12.4779 29.8971 10.375 27.3125 10.375Z" fill="url(#paint0_linear)"/>
<path d="M25.4375 27.25C24.9198 27.25 24.5 27.6698 24.5 28.1875C24.5 28.7052 24.9198 29.125 25.4375 29.125C25.9552 29.125 26.375 28.7052 26.375 28.1875C26.375 27.6698 25.9552 27.25 25.4375 27.25ZM29.1875 8.5C29.7052 8.5 30.125 8.08025 30.125 7.5625C30.125 7.04475 29.7052 6.625 29.1875 6.625C28.6698 6.625 28.25 7.04475 28.25 7.5625C28.25 8.08025 28.6698 8.5 29.1875 8.5ZM29.1875 21.625C27.6366 21.625 26.375 22.8866 26.375 24.4375C26.375 25.9884 27.6366 27.25 29.1875 27.25C30.7384 27.25 32 25.9884 32 24.4375C32 22.8866 30.7384 21.625 29.1875 21.625ZM21.6875 2.875C20.1366 2.875 18.875 4.13663 18.875 5.6875C18.875 7.23837 20.1366 8.5 21.6875 8.5C23.2384 8.5 24.5 7.23837 24.5 5.6875C24.5 4.13663 23.2384 2.875 21.6875 2.875Z" fill="url(#paint1_linear)"/>
<defs>
<linearGradient id="paint0_linear" x1="0" y1="8.5" x2="18.7544" y2="37.63" gradientUnits="userSpaceOnUse">
<stop stop-color="#D5FFCB"/>
<stop offset="1" stop-color="#00979D"/>
</linearGradient>
<linearGradient id="paint1_linear" x1="18.875" y1="2.875" x2="39.8657" y2="13.382" gradientUnits="userSpaceOnUse">
<stop stop-color="#D5FFCB"/>
<stop offset="1" stop-color="#00979D"/>
</linearGradient>
</defs>
</svg>
