<svg width="40" height="40" viewBox="0 0 40 40" fill="none" xmlns="http://www.w3.org/2000/svg">
<circle cx="20" cy="20" r="20" fill="#D3ADF7"/>
<path d="M28.1216 25.8969C27.6795 24.8496 27.0379 23.8984 26.2326 23.0961C25.4297 22.2915 24.4786 21.65 23.4318 21.207C23.4224 21.2023 23.413 21.2 23.4037 21.1953C24.8638 20.1406 25.813 18.4227 25.813 16.4844C25.813 13.2734 23.2115 10.6719 20.0005 10.6719C16.7896 10.6719 14.188 13.2734 14.188 16.4844C14.188 18.4227 15.1373 20.1406 16.5974 21.1977C16.588 21.2023 16.5787 21.2047 16.5693 21.2094C15.5193 21.6523 14.5771 22.2875 13.7685 23.0984C12.9639 23.9013 12.3224 24.8524 11.8795 25.8992C11.4443 26.924 11.2096 28.0228 11.188 29.1359C11.1874 29.161 11.1918 29.1858 11.201 29.2091C11.2101 29.2324 11.2238 29.2537 11.2413 29.2716C11.2588 29.2895 11.2796 29.3037 11.3027 29.3134C11.3258 29.3231 11.3505 29.3281 11.3755 29.3281H12.7818C12.8849 29.3281 12.967 29.2461 12.9693 29.1453C13.0162 27.3359 13.7427 25.6414 15.0271 24.357C16.356 23.0281 18.1209 22.2969 20.0005 22.2969C21.8802 22.2969 23.6451 23.0281 24.974 24.357C26.2584 25.6414 26.9849 27.3359 27.0318 29.1453C27.0341 29.2484 27.1162 29.3281 27.2193 29.3281H28.6255C28.6506 29.3281 28.6753 29.3231 28.6984 29.3134C28.7215 29.3037 28.7423 29.2895 28.7598 29.2716C28.7773 29.2537 28.791 29.2324 28.8001 29.2091C28.8093 29.1858 28.8137 29.161 28.813 29.1359C28.7896 28.0156 28.5576 26.9258 28.1216 25.8969ZM20.0005 20.5156C18.9248 20.5156 17.9123 20.0961 17.1505 19.3344C16.3888 18.5727 15.9693 17.5602 15.9693 16.4844C15.9693 15.4086 16.3888 14.3961 17.1505 13.6344C17.9123 12.8727 18.9248 12.4531 20.0005 12.4531C21.0763 12.4531 22.0888 12.8727 22.8505 13.6344C23.6123 14.3961 24.0318 15.4086 24.0318 16.4844C24.0318 17.5602 23.6123 18.5727 22.8505 19.3344C22.0888 20.0961 21.0763 20.5156 20.0005 20.5156Z" fill="white"/>
</svg>
