<svg width="10" height="12" viewBox="0 0 10 12" fill="none" xmlns="http://www.w3.org/2000/svg">
<path d="M5.80926 6.03906L9.91082 1.15C9.97957 1.06875 9.92176 0.945312 9.81551 0.945312H8.56863C8.49519 0.945312 8.42488 0.978125 8.37644 1.03437L4.99363 5.06719L1.61082 1.03437C1.56394 0.978125 1.49363 0.945312 1.41863 0.945312H0.171756C0.0655061 0.945312 0.00769351 1.06875 0.0764435 1.15L4.17801 6.03906L0.0764435 10.9281C0.0610429 10.9462 0.0511628 10.9684 0.0479759 10.9919C0.0447889 11.0155 0.048429 11.0395 0.0584644 11.061C0.0684997 11.0826 0.0845088 11.1008 0.104591 11.1135C0.124672 11.1263 0.147983 11.1329 0.171756 11.1328H1.41863C1.49207 11.1328 1.56238 11.1 1.61082 11.0438L4.99363 7.01094L8.37644 11.0438C8.42332 11.1 8.49363 11.1328 8.56863 11.1328H9.81551C9.92176 11.1328 9.97957 11.0094 9.91082 10.9281L5.80926 6.03906Z" fill="#262626"/>
</svg>
