<svg width="32" height="32" viewBox="0 0 32 32" fill="none" xmlns="http://www.w3.org/2000/svg">
<g clip-path="url(#clip0)">
<path d="M27.3167 4.6867C26.9506 4.32058 26.357 4.32058 25.9908 4.6867C25.6247 5.05283 25.6247 5.64639 25.9908 6.01252C28.6568 8.67845 30.125 12.2256 30.125 16.0004C30.125 19.7752 28.6568 23.3223 25.9908 25.9883C25.6247 26.3543 25.6247 26.948 25.9908 27.3141C26.3576 27.6808 26.9512 27.6796 27.3167 27.3141C30.3368 24.294 32 20.2761 32 16.0004C32 11.7247 30.3368 7.70677 27.3167 4.6867Z" fill="url(#paint0_linear)"/>
<path d="M24.4778 7.52552C24.1117 7.15946 23.5181 7.15946 23.152 7.52552C22.786 7.89165 22.786 8.48521 23.152 8.85134C25.0604 10.7595 26.1114 13.2985 26.1114 16.0005C26.1114 18.7025 25.0604 21.2415 23.152 23.1497C22.7859 23.5158 22.7859 24.1094 23.152 24.4755C23.518 24.8415 24.1116 24.8417 24.4778 24.4755C26.7404 22.2131 27.9864 19.2033 27.9864 16.0005C27.9864 12.7976 26.7403 9.78784 24.4778 7.52552Z" fill="url(#paint1_linear)"/>
<path d="M21.637 10.3663C21.2709 10.0003 20.6773 10.0003 20.3112 10.3663C19.9451 10.7325 19.9452 11.3261 20.3112 11.6922C21.4612 12.842 22.0945 14.3722 22.0945 16.0005C22.0945 17.6289 21.4612 19.159 20.3112 20.3089C19.9451 20.675 19.9451 21.2686 20.3112 21.6347C20.6773 22.0008 21.2708 22.0009 21.637 21.6347C23.1412 20.1306 23.9695 18.1297 23.9695 16.0005C23.9695 13.8712 23.1412 11.8704 21.637 10.3663Z" fill="url(#paint2_linear)"/>
<path d="M1.875 16.0004C1.875 12.2256 3.34319 8.67843 6.00919 6.01249C6.37531 5.64643 6.37531 5.0528 6.00919 4.68668C5.64313 4.32062 5.04956 4.32055 4.68337 4.68668C1.66325 7.70674 0 11.7247 0 16.0004C0 20.2761 1.66325 24.294 4.68337 27.3141C5.04938 27.6801 5.64306 27.6802 6.00919 27.3141C6.37531 26.9479 6.37531 26.3544 6.00919 25.9882C3.34319 23.3223 1.875 19.7752 1.875 16.0004Z" fill="url(#paint3_linear)"/>
<path d="M5.88869 16.0005C5.88869 13.2985 6.93963 10.7596 8.84801 8.85136C9.21413 8.48523 9.21413 7.89167 8.84801 7.52555C8.48194 7.15942 7.88832 7.15948 7.52219 7.52555C5.25969 9.78786 4.01369 12.7977 4.01369 16.0005C4.01369 19.2034 5.25969 22.2132 7.52219 24.4756C7.88882 24.8422 8.48238 24.8412 8.84801 24.4756C9.21407 24.1095 9.21407 23.5159 8.84801 23.1498C6.93963 21.2415 5.88869 18.7025 5.88869 16.0005Z" fill="url(#paint4_linear)"/>
<path d="M11.6888 10.3664C11.3227 10.0003 10.7291 10.0003 10.363 10.3664C8.85885 11.8705 8.03047 13.8714 8.03047 16.0006C8.03047 18.1299 8.85885 20.1308 10.363 21.6349C10.7296 22.0015 11.3232 22.0005 11.6888 21.6349C12.0549 21.2688 12.0548 20.6751 11.6888 20.3091C10.5388 19.1592 9.90547 17.6291 9.90547 16.0007C9.90547 14.3723 10.5388 12.8422 11.6888 11.6923C12.0548 11.3261 12.0548 10.7325 11.6888 10.3664Z" fill="url(#paint5_linear)"/>
<path d="M16 12.0508C13.822 12.0508 12.05 13.8228 12.05 16.0008C12.05 18.1788 13.822 19.9508 16 19.9508C18.178 19.9508 19.95 18.1788 19.95 16.0008C19.95 13.8228 18.1781 12.0508 16 12.0508Z" fill="url(#paint6_linear)"/>
</g>
<defs>
<linearGradient id="paint0_linear" x1="25.7162" y1="4.41211" x2="32.8285" y2="4.67138" gradientUnits="userSpaceOnUse">
<stop stop-color="#96E0EA"/>
<stop offset="1" stop-color="#2B6B9F"/>
</linearGradient>
<linearGradient id="paint1_linear" x1="22.8774" y1="7.25098" x2="28.6587" y2="7.47792" gradientUnits="userSpaceOnUse">
<stop stop-color="#96E0EA"/>
<stop offset="1" stop-color="#2B6B9F"/>
</linearGradient>
<linearGradient id="paint2_linear" x1="20.0366" y1="10.0918" x2="24.4851" y2="10.2909" gradientUnits="userSpaceOnUse">
<stop stop-color="#96E0EA"/>
<stop offset="1" stop-color="#2B6B9F"/>
</linearGradient>
<linearGradient id="paint3_linear" x1="0" y1="4.41211" x2="7.11227" y2="4.67138" gradientUnits="userSpaceOnUse">
<stop stop-color="#96E0EA"/>
<stop offset="1" stop-color="#2B6B9F"/>
</linearGradient>
<linearGradient id="paint4_linear" x1="4.01369" y1="7.25098" x2="9.79496" y2="7.47792" gradientUnits="userSpaceOnUse">
<stop stop-color="#96E0EA"/>
<stop offset="1" stop-color="#2B6B9F"/>
</linearGradient>
<linearGradient id="paint5_linear" x1="8.03047" y1="10.0918" x2="12.4789" y2="10.2908" gradientUnits="userSpaceOnUse">
<stop stop-color="#96E0EA"/>
<stop offset="1" stop-color="#2B6B9F"/>
</linearGradient>
<linearGradient id="paint6_linear" x1="12.05" y1="12.0508" x2="20.8445" y2="13.2332" gradientUnits="userSpaceOnUse">
<stop stop-color="#96E0EA"/>
<stop offset="1" stop-color="#2B6B9F"/>
</linearGradient>
<clipPath id="clip0">
<rect width="32" height="32" fill="white"/>
</clipPath>
</defs>
</svg>
