<svg width="32" height="32" viewBox="0 0 32 32" fill="none" xmlns="http://www.w3.org/2000/svg">
<path d="M7.19139 4.62793L3.24119 12.4131C2.10887 14.6458 3.00071 17.3735 5.23338 18.5059C5.28563 18.5325 5.33836 18.5579 5.39134 18.5823C5.47313 18.3594 5.55125 18.1357 5.64915 17.9167L9.60155 9.0708L7.19139 4.62793Z" fill="url(#paint0_linear)"/>
<path d="M24.0824 17.7639L15.0118 0L6.77719 18.4221C4.70126 23.0667 6.78378 28.5149 11.4283 30.5908C11.5868 30.6616 11.7472 30.7278 11.9093 30.7896C13.8978 31.5461 16.0863 31.5925 18.1051 30.9214L18.7862 30.6941C23.6134 29.085 26.222 23.8669 24.6129 19.0396C24.4666 18.6016 24.2879 18.175 24.078 17.7639H24.0824ZM18.9676 28.4009C18.6634 28.5569 18.2901 28.4368 18.1341 28.1326C17.9781 27.8284 18.0982 27.4551 18.4024 27.2991C18.4051 27.2979 18.4078 27.2964 18.4102 27.2952C20.8509 26.0732 22.3956 23.5811 22.4039 20.8516C22.4058 20.5112 22.6825 20.2361 23.023 20.2361H23.0267C23.3673 20.2383 23.6422 20.5149 23.6422 20.8555C23.6334 24.0513 21.8253 26.97 18.9676 28.4009Z" fill="url(#paint1_linear)"/>
<path d="M26.1187 28.2852H27.3569V29.5234H26.1187V28.2852Z" fill="url(#paint2_linear)"/>
<path d="M27.9761 25.8086H29.2144V27.0469H27.9761V25.8086Z" fill="url(#paint3_linear)"/>
<path d="M24.2612 30.7617H25.4995V32H24.2612V30.7617Z" fill="url(#paint4_linear)"/>
<defs>
<linearGradient id="paint0_linear" x1="2.75" y1="4.62793" x2="10.4815" y2="5.13834" gradientUnits="userSpaceOnUse">
<stop stop-color="#96E0EA"/>
<stop offset="1" stop-color="#2B6B9F"/>
</linearGradient>
<linearGradient id="paint1_linear" x1="5.97314" y1="0" x2="27.493" y2="1.76182" gradientUnits="userSpaceOnUse">
<stop stop-color="#96E0EA"/>
<stop offset="1" stop-color="#2B6B9F"/>
</linearGradient>
<linearGradient id="paint2_linear" x1="26.1187" y1="28.2852" x2="27.4971" y2="28.4705" gradientUnits="userSpaceOnUse">
<stop stop-color="#96E0EA"/>
<stop offset="1" stop-color="#2B6B9F"/>
</linearGradient>
<linearGradient id="paint3_linear" x1="27.9761" y1="25.8086" x2="29.3546" y2="25.9939" gradientUnits="userSpaceOnUse">
<stop stop-color="#96E0EA"/>
<stop offset="1" stop-color="#2B6B9F"/>
</linearGradient>
<linearGradient id="paint4_linear" x1="24.2612" y1="30.7617" x2="25.6397" y2="30.9471" gradientUnits="userSpaceOnUse">
<stop stop-color="#96E0EA"/>
<stop offset="1" stop-color="#2B6B9F"/>
</linearGradient>
</defs>
</svg>
