<svg width="240" height="160" viewBox="0 0 240 160" fill="none" xmlns="http://www.w3.org/2000/svg">
<g clip-path="url(#clip0)">
<path d="M224.73 99.4577C224.414 99.3709 224.076 99.4129 223.79 99.5745C223.505 99.7361 223.295 100.004 223.208 100.319C223.289 100.005 223.243 99.6716 223.08 99.391C222.916 99.1105 222.648 98.9056 222.334 98.8208C222.02 98.736 221.685 98.7781 221.401 98.9381C221.118 99.0981 220.909 99.3629 220.82 99.6752L219.141 105.716L218.256 99.5126C218.224 99.1868 218.064 98.8869 217.811 98.6789C217.557 98.4708 217.231 98.3718 216.904 98.4035C216.742 98.4192 216.585 98.4665 216.441 98.5428C216.298 98.619 216.171 98.7227 216.067 98.8479C215.858 99.1008 215.759 99.4259 215.79 99.7517C215.799 99.7858 215.802 99.821 215.8 99.8561C215.782 99.6939 215.732 99.5369 215.652 99.3941C215.573 99.2514 215.466 99.1257 215.338 99.0245C215.21 98.9232 215.062 98.8482 214.905 98.804C214.747 98.7597 214.582 98.747 214.42 98.7666C214.257 98.7862 214.1 98.8378 213.958 98.9182C213.815 98.9986 213.69 99.1064 213.589 99.2353C213.489 99.3642 213.415 99.5117 213.372 99.6692C213.329 99.8266 213.317 99.9911 213.338 100.153C213.337 100.165 213.347 100.177 213.345 100.188L213.459 101.004L214.228 106.505C214.358 107.458 214.763 108.352 215.395 109.078C216.026 109.804 216.856 110.331 217.784 110.594L217.783 110.606C218.459 110.781 219.162 110.827 219.856 110.741L219.857 110.729C220.81 110.581 221.7 110.161 222.42 109.52C223.14 108.88 223.658 108.046 223.913 107.118L225.378 101.761L225.595 100.964C225.64 100.808 225.654 100.645 225.635 100.484C225.616 100.323 225.564 100.168 225.484 100.027C225.403 99.8868 225.295 99.764 225.165 99.6661C225.036 99.5682 224.888 99.4974 224.73 99.4579L224.73 99.4577Z" fill="white"/>
<path d="M219.898 111.078C219.161 111.171 218.414 111.122 217.696 110.935C217.665 110.927 217.634 110.914 217.606 110.897C216.634 110.603 215.768 110.037 215.109 109.267C214.45 108.497 214.027 107.555 213.889 106.552L213.009 100.25C213.002 100.225 212.998 100.2 212.997 100.175C212.961 99.8548 213.024 99.5315 213.179 99.2486C213.334 98.9657 213.572 98.737 213.861 98.5934C214.15 98.4497 214.477 98.3982 214.796 98.4457C215.115 98.4933 215.412 98.6376 215.647 98.8591C215.694 98.7757 215.749 98.6967 215.81 98.623C215.942 98.4642 216.103 98.333 216.286 98.237C216.468 98.141 216.668 98.0821 216.874 98.0639C217.082 98.0437 217.292 98.0651 217.491 98.1265C217.691 98.188 217.876 98.2885 218.037 98.422C218.195 98.5517 218.325 98.7113 218.421 98.8915C218.517 99.0716 218.577 99.269 218.596 99.4721L219.25 104.051L220.491 99.5847C220.58 99.273 220.763 98.9964 221.016 98.7927C221.269 98.5889 221.579 98.468 221.904 98.4466C222.228 98.4251 222.551 98.5042 222.829 98.6728C223.106 98.8415 223.324 99.0916 223.454 99.3888C223.644 99.2481 223.864 99.1513 224.096 99.1054C224.329 99.0595 224.568 99.0656 224.798 99.1233C224.819 99.127 224.84 99.1326 224.86 99.1401C225.256 99.2561 225.591 99.5214 225.793 99.8796C225.894 100.058 225.957 100.254 225.98 100.457C226.002 100.661 225.982 100.866 225.922 101.062L225.708 101.849L224.244 107.207C223.974 108.185 223.431 109.066 222.678 109.747C221.924 110.428 220.992 110.881 219.99 111.053C219.961 111.066 219.93 111.075 219.898 111.078ZM217.95 110.296C218.534 110.438 219.139 110.477 219.736 110.411C219.758 110.402 219.781 110.396 219.805 110.392C220.692 110.254 221.521 109.863 222.192 109.266C222.862 108.669 223.346 107.892 223.584 107.029L225.265 100.875C225.3 100.765 225.311 100.65 225.299 100.536C225.288 100.422 225.252 100.312 225.196 100.212C225.138 100.107 225.058 100.016 224.963 99.9428C224.868 99.8697 224.759 99.8167 224.643 99.787C224.414 99.724 224.169 99.7538 223.962 99.8699C223.755 99.986 223.603 100.179 223.538 100.407C223.514 100.493 223.458 100.567 223.38 100.612C223.302 100.658 223.21 100.67 223.123 100.648C223.036 100.626 222.961 100.57 222.915 100.493C222.868 100.417 222.854 100.325 222.876 100.237C222.934 100.007 222.898 99.7636 222.776 99.5599C222.654 99.3562 222.455 99.209 222.225 99.1506C222 99.0935 221.762 99.1262 221.561 99.2416C221.36 99.3571 221.212 99.5461 221.149 99.7685L219.471 105.806C219.45 105.881 219.404 105.947 219.34 105.993C219.276 106.038 219.198 106.06 219.12 106.056C219.041 106.051 218.967 106.019 218.909 105.966C218.852 105.913 218.814 105.841 218.803 105.764L217.917 99.5607C217.917 99.555 217.916 99.5494 217.915 99.5435C217.905 99.428 217.872 99.3157 217.818 99.2131C217.764 99.1106 217.689 99.0198 217.6 98.9461C217.508 98.87 217.403 98.8127 217.289 98.7777C217.175 98.7426 217.055 98.7305 216.937 98.7419C216.821 98.7525 216.708 98.7858 216.605 98.8399C216.502 98.8941 216.411 98.9681 216.336 99.0575C216.185 99.2375 216.111 99.4694 216.129 99.7033C216.143 99.7672 216.146 99.8329 216.139 99.8978C216.128 99.9801 216.088 100.056 216.026 100.111C215.963 100.166 215.883 100.196 215.8 100.196C215.717 100.196 215.636 100.166 215.574 100.111C215.511 100.057 215.471 99.9809 215.461 99.8986C215.433 99.6644 215.313 99.4508 215.128 99.3042C214.942 99.1576 214.706 99.0899 214.471 99.1159C214.236 99.1418 214.02 99.2593 213.871 99.4427C213.723 99.6262 213.652 99.8608 213.676 100.095C213.681 100.115 213.684 100.136 213.686 100.156L214.566 106.457C214.687 107.344 215.065 108.177 215.653 108.853C216.241 109.529 217.014 110.02 217.878 110.266C217.903 110.273 217.927 110.283 217.95 110.296Z" fill="#262626"/>
<path d="M216.503 104.914C216.414 104.925 216.324 104.901 216.253 104.847C216.182 104.792 216.135 104.712 216.123 104.623L215.45 99.8099C215.438 99.7204 215.462 99.6296 215.516 99.5575C215.571 99.4853 215.652 99.4377 215.742 99.4252C215.786 99.4184 215.832 99.4206 215.875 99.4315C215.919 99.4425 215.96 99.4621 215.996 99.4892C216.032 99.5162 216.062 99.5502 216.085 99.589C216.107 99.6279 216.122 99.6708 216.128 99.7154L216.8 104.529C216.806 104.573 216.803 104.618 216.792 104.662C216.781 104.705 216.761 104.746 216.734 104.781C216.707 104.817 216.673 104.847 216.634 104.87C216.596 104.893 216.553 104.907 216.508 104.914L216.503 104.914Z" fill="#262626"/>
<path d="M221.995 105.263C221.94 105.27 221.883 105.263 221.831 105.243C221.778 105.223 221.732 105.19 221.695 105.148C221.658 105.105 221.633 105.055 221.62 105C221.608 104.945 221.609 104.889 221.624 104.835L222.912 100.142C222.923 100.099 222.944 100.058 222.971 100.022C222.998 99.9861 223.033 99.9561 223.072 99.9335C223.111 99.911 223.154 99.8964 223.199 99.8906C223.244 99.8848 223.289 99.8879 223.333 99.8998C223.376 99.9116 223.417 99.932 223.453 99.9597C223.489 99.9873 223.518 100.022 223.54 100.061C223.563 100.1 223.577 100.143 223.582 100.188C223.587 100.233 223.584 100.278 223.571 100.322L222.284 105.014C222.266 105.079 222.229 105.138 222.177 105.182C222.126 105.226 222.063 105.254 221.995 105.263Z" fill="#262626"/>
<path d="M215.988 150.568C215.966 150.57 215.944 150.571 215.922 150.569C215.831 150.563 215.747 150.521 215.688 150.453C215.629 150.384 215.599 150.295 215.605 150.205L218.643 108.099C218.65 108.009 218.692 107.926 218.761 107.867C218.829 107.809 218.918 107.779 219.008 107.786C219.098 107.792 219.182 107.834 219.241 107.901C219.301 107.969 219.331 108.057 219.325 108.147L216.288 150.253C216.282 150.332 216.249 150.406 216.195 150.464C216.14 150.521 216.067 150.558 215.988 150.568Z" fill="#262626"/>
<path d="M141.971 132.313C143.447 132.313 144.643 131.102 144.643 129.608C144.643 128.114 143.447 126.903 141.971 126.903C140.495 126.903 139.298 128.114 139.298 129.608C139.298 131.102 140.495 132.313 141.971 132.313Z" fill="white"/>
<path d="M141.971 132.615C140.333 132.615 139 131.266 139 129.608C139 127.949 140.333 126.6 141.971 126.6C143.609 126.6 144.941 127.949 144.941 129.608C144.941 131.266 143.609 132.615 141.971 132.615ZM141.971 127.205C140.662 127.205 139.597 128.283 139.597 129.608C139.597 130.932 140.662 132.01 141.971 132.01C143.279 132.01 144.344 130.932 144.344 129.608C144.344 128.283 143.279 127.205 141.971 127.205Z" fill="#262626"/>
<path d="M144.901 152.2C144.754 152.2 144.626 152.09 144.606 151.938L141.675 129.648C141.653 129.482 141.768 129.33 141.931 129.308C142.094 129.286 142.245 129.402 142.266 129.568L145.197 151.858C145.219 152.023 145.104 152.176 144.941 152.198C144.928 152.199 144.914 152.2 144.901 152.2Z" fill="#262626"/>
<path d="M226.206 147.71C226.116 147.689 226.039 147.634 225.989 147.557C225.94 147.48 225.922 147.386 225.94 147.296L233.45 109.928C233.469 109.836 233.523 109.755 233.602 109.703C233.68 109.651 233.776 109.632 233.868 109.65C233.96 109.669 234.041 109.723 234.093 109.801C234.145 109.88 234.164 109.975 234.146 110.068L226.636 147.436C226.626 147.481 226.608 147.525 226.582 147.563C226.556 147.602 226.523 147.635 226.484 147.661C226.446 147.687 226.402 147.705 226.357 147.713C226.311 147.722 226.264 147.722 226.218 147.713L226.206 147.71Z" fill="#262626"/>
<path d="M232.667 115.55C232.61 115.536 232.557 115.509 232.513 115.47C232.469 115.431 232.436 115.381 232.416 115.326L231.008 111.457C230.976 111.369 230.98 111.271 231.02 111.186C231.06 111.101 231.132 111.035 231.22 111.003C231.309 110.971 231.406 110.975 231.491 111.015C231.576 111.055 231.642 111.127 231.674 111.215L232.883 114.538L235.285 111.936C235.317 111.901 235.354 111.872 235.397 111.852C235.439 111.832 235.485 111.821 235.532 111.819C235.579 111.816 235.626 111.824 235.67 111.84C235.714 111.856 235.754 111.88 235.789 111.912C235.823 111.944 235.851 111.982 235.871 112.025C235.89 112.068 235.901 112.114 235.903 112.16C235.904 112.207 235.897 112.254 235.88 112.298C235.863 112.342 235.838 112.382 235.806 112.416L233.009 115.446C232.968 115.49 232.916 115.524 232.858 115.542C232.8 115.561 232.739 115.565 232.679 115.553L232.667 115.55Z" fill="#262626"/>
<path d="M231.962 119.046C231.904 119.032 231.851 119.004 231.807 118.965C231.763 118.926 231.73 118.876 231.71 118.821L229.687 113.183C229.671 113.139 229.664 113.093 229.666 113.046C229.669 113 229.68 112.954 229.7 112.912C229.72 112.87 229.747 112.832 229.782 112.8C229.817 112.769 229.857 112.745 229.901 112.729C229.945 112.713 229.991 112.706 230.038 112.709C230.085 112.711 230.13 112.723 230.172 112.743C230.214 112.763 230.252 112.791 230.284 112.825C230.315 112.86 230.339 112.9 230.354 112.944L232.179 118.03L235.836 114.041C235.867 114.005 235.904 113.975 235.947 113.954C235.989 113.933 236.036 113.921 236.083 113.918C236.131 113.915 236.178 113.922 236.223 113.938C236.268 113.954 236.309 113.978 236.344 114.01C236.379 114.043 236.407 114.081 236.427 114.125C236.447 114.168 236.457 114.214 236.459 114.262C236.46 114.309 236.452 114.357 236.434 114.401C236.417 114.445 236.391 114.485 236.358 114.519L232.304 118.941C232.263 118.986 232.211 119.02 232.153 119.039C232.095 119.058 232.033 119.061 231.973 119.049L231.962 119.046Z" fill="#262626"/>
<path d="M231.163 123.041C231.106 123.027 231.053 123 231.01 122.961C230.966 122.922 230.932 122.873 230.912 122.817L228.274 115.565C228.243 115.477 228.249 115.381 228.289 115.297C228.329 115.213 228.4 115.149 228.487 115.117C228.575 115.085 228.671 115.089 228.756 115.128C228.84 115.166 228.906 115.237 228.939 115.323L231.379 122.029L236.222 116.784C236.253 116.749 236.291 116.721 236.334 116.701C236.376 116.681 236.422 116.669 236.469 116.667C236.516 116.665 236.563 116.672 236.607 116.688C236.651 116.704 236.691 116.729 236.726 116.76C236.76 116.792 236.788 116.83 236.808 116.873C236.827 116.916 236.838 116.962 236.84 117.009C236.841 117.056 236.834 117.102 236.817 117.146C236.8 117.19 236.775 117.23 236.743 117.264L231.506 122.937C231.465 122.981 231.413 123.015 231.355 123.033C231.297 123.052 231.235 123.056 231.176 123.044L231.163 123.041Z" fill="#262626"/>
<path d="M230.387 126.889C230.33 126.875 230.277 126.848 230.234 126.809C230.19 126.77 230.157 126.721 230.137 126.666L227.017 118.102C227.001 118.058 226.993 118.011 226.994 117.964C226.996 117.917 227.007 117.871 227.026 117.828C227.046 117.786 227.073 117.747 227.108 117.715C227.143 117.683 227.183 117.659 227.227 117.643C227.272 117.627 227.318 117.62 227.365 117.622C227.412 117.624 227.458 117.636 227.501 117.656C227.543 117.676 227.581 117.705 227.613 117.74C227.644 117.775 227.668 117.816 227.683 117.86L230.604 125.878L236.401 119.608C236.465 119.539 236.554 119.499 236.648 119.495C236.742 119.491 236.833 119.525 236.902 119.589C236.971 119.652 237.012 119.741 237.016 119.835C237.02 119.929 236.986 120.02 236.922 120.089L230.73 126.785C230.688 126.83 230.636 126.863 230.579 126.881C230.521 126.9 230.459 126.904 230.399 126.892C230.395 126.891 230.391 126.89 230.387 126.889Z" fill="#262626"/>
<path d="M123.612 147.485L123.618 108.047H79.2694V147.501L123.612 147.485Z" fill="white"/>
<path d="M79.2694 147.8C79.1899 147.8 79.1137 147.768 79.0575 147.712C79.0013 147.656 78.9697 147.58 78.9697 147.501V108.047C78.9697 107.968 79.0013 107.892 79.0575 107.836C79.1137 107.78 79.1899 107.749 79.2694 107.749H123.618C123.698 107.749 123.774 107.78 123.83 107.836C123.886 107.892 123.918 107.968 123.918 108.047L123.911 147.485C123.911 147.565 123.88 147.641 123.823 147.697C123.767 147.753 123.691 147.784 123.611 147.784L79.2694 147.8ZM79.5689 108.346V147.202L123.312 147.186L123.318 108.346L79.5689 108.346Z" fill="#262626"/>
<path d="M44.5129 108.052H32.1272H13.1591V147.485H79.3427V108.082L44.5129 108.052Z" fill="white"/>
<path d="M79.3427 147.784H13.1592C13.0797 147.784 13.0035 147.753 12.9473 147.697C12.8911 147.641 12.8595 147.565 12.8595 147.485V108.052C12.8595 107.973 12.8911 107.897 12.9473 107.84C13.0035 107.784 13.0797 107.753 13.1592 107.753H44.5129L79.3427 107.783C79.4222 107.783 79.4984 107.814 79.5546 107.87C79.6108 107.926 79.6424 108.002 79.6424 108.082V147.485C79.6424 147.565 79.6108 147.641 79.5546 147.697C79.4984 147.753 79.4222 147.784 79.3427 147.784ZM13.4588 147.186H79.0431V108.381L44.5129 108.351H13.4588V147.186Z" fill="#262626"/>
<path d="M73.0599 139.615H64.2301C64.1507 139.615 64.0744 139.583 64.0182 139.527C63.962 139.471 63.9305 139.395 63.9305 139.316V133.727C63.9305 133.647 63.962 133.571 64.0182 133.515C64.0744 133.459 64.1507 133.428 64.2301 133.428H73.0599C73.1394 133.428 73.2156 133.459 73.2718 133.515C73.328 133.571 73.3596 133.647 73.3596 133.727V139.316C73.3596 139.395 73.328 139.471 73.2718 139.527C73.2156 139.583 73.1394 139.615 73.0599 139.615ZM64.5298 139.017H72.7603V134.026H64.5298V139.017Z" fill="#262626"/>
<path d="M25.7646 145.204H16.9348C16.8553 145.204 16.7791 145.173 16.7229 145.117C16.6667 145.06 16.6351 144.984 16.6351 144.905V139.316C16.6351 139.237 16.6667 139.161 16.7229 139.105C16.7791 139.049 16.8553 139.017 16.9348 139.017H25.7646C25.8441 139.017 25.9203 139.049 25.9765 139.105C26.0327 139.161 26.0642 139.237 26.0642 139.316V144.905C26.0642 144.984 26.0327 145.06 25.9765 145.117C25.9203 145.173 25.8441 145.204 25.7646 145.204ZM17.2344 144.606H25.4649V139.615H17.2344V144.606Z" fill="#262626"/>
<path d="M69.1544 134.025H60.3246C60.2451 134.025 60.1689 133.994 60.1127 133.938C60.0565 133.882 60.0249 133.806 60.0249 133.727V128.137C60.0249 128.058 60.0565 127.982 60.1127 127.926C60.1689 127.87 60.2451 127.838 60.3246 127.838H69.1544C69.2338 127.838 69.31 127.87 69.3662 127.926C69.4224 127.982 69.454 128.058 69.454 128.137V133.727C69.454 133.806 69.4224 133.882 69.3662 133.938C69.31 133.994 69.2338 134.025 69.1544 134.025ZM60.6242 133.428H68.8547V128.436H60.6242V133.428Z" fill="#262626"/>
<path d="M108.709 147.784H94.2354C94.1559 147.784 94.0797 147.753 94.0235 147.697C93.9673 147.641 93.9357 147.565 93.9357 147.485V124.262C93.9357 124.183 93.9673 124.106 94.0235 124.05C94.0797 123.994 94.1559 123.963 94.2354 123.963H108.709C108.788 123.963 108.864 123.994 108.921 124.05C108.977 124.106 109.008 124.183 109.008 124.262V147.485C109.008 147.565 108.977 147.641 108.921 147.697C108.864 147.753 108.788 147.784 108.709 147.784ZM94.535 147.187H108.409V124.561H94.535V147.187Z" fill="#262626"/>
<path d="M36.5821 66.2988H100.768L68.2755 108.074H4.09961L36.5821 66.2988Z" fill="white"/>
<path d="M68.2756 108.373H4.09972C4.04368 108.373 3.98876 108.357 3.94121 108.327C3.89366 108.298 3.85538 108.255 3.83073 108.205C3.80607 108.155 3.79602 108.099 3.80173 108.043C3.80743 107.988 3.82866 107.935 3.863 107.891L36.3455 66.1158C36.3735 66.0797 36.4094 66.0506 36.4504 66.0305C36.4914 66.0105 36.5365 66 36.5822 66H100.768C100.824 66 100.879 66.0157 100.927 66.0453C100.974 66.0749 101.013 66.1172 101.037 66.1674C101.062 66.2176 101.072 66.2738 101.066 66.3294C101.06 66.385 101.039 66.4379 101.005 66.4821L68.5123 108.257C68.4843 108.293 68.4484 108.322 68.4074 108.342C68.3664 108.362 68.3213 108.373 68.2756 108.373ZM4.71142 107.775H68.1289L100.156 66.5978H36.7289L4.71142 107.775Z" fill="#262626"/>
<path d="M106.092 137.413C105.863 137.413 105.639 137.345 105.448 137.218C105.258 137.091 105.109 136.911 105.021 136.7C104.934 136.488 104.911 136.256 104.955 136.032C105 135.808 105.11 135.602 105.273 135.44C105.435 135.278 105.641 135.168 105.866 135.124C106.091 135.079 106.324 135.102 106.535 135.19C106.747 135.277 106.928 135.425 107.055 135.615C107.183 135.805 107.25 136.029 107.25 136.257C107.25 136.564 107.128 136.857 106.911 137.074C106.694 137.291 106.399 137.413 106.092 137.413ZM106.092 135.699C105.981 135.699 105.873 135.732 105.781 135.793C105.689 135.855 105.617 135.942 105.575 136.044C105.533 136.146 105.522 136.258 105.543 136.366C105.565 136.474 105.618 136.574 105.696 136.652C105.775 136.73 105.874 136.783 105.983 136.804C106.091 136.826 106.204 136.815 106.306 136.773C106.408 136.73 106.495 136.659 106.557 136.567C106.618 136.475 106.651 136.368 106.651 136.257C106.651 136.109 106.592 135.968 106.487 135.863C106.382 135.758 106.24 135.699 106.092 135.699Z" fill="#262626"/>
<path d="M94.2355 121.681H85.4057C85.2865 121.681 85.1723 121.634 85.088 121.55C85.0038 121.466 84.9564 121.352 84.9562 121.233V115.644C84.9564 115.525 85.0038 115.411 85.088 115.327C85.1723 115.243 85.2865 115.195 85.4057 115.195H94.2355C94.3547 115.195 94.4689 115.243 94.5532 115.327C94.6375 115.411 94.6849 115.525 94.685 115.644V121.233C94.6849 121.352 94.6375 121.466 94.5532 121.55C94.4689 121.634 94.3547 121.681 94.2355 121.681ZM85.5555 121.083H94.0857V115.793H85.5555V121.083Z" fill="#262626"/>
<path d="M139.1 108.089L100.768 66.2988L68.2756 108.074H71.9614L100.608 70.4733L136.204 108.089H139.1Z" fill="white"/>
<path d="M139.1 108.388H136.204C136.163 108.388 136.123 108.38 136.085 108.364C136.048 108.348 136.014 108.324 135.986 108.294L100.633 70.935L72.1999 108.254C72.172 108.291 72.1359 108.321 72.0945 108.341C72.0531 108.362 72.0075 108.373 71.9613 108.373H68.2756C68.2195 108.373 68.1646 108.357 68.117 108.327C68.0694 108.298 68.0312 108.255 68.0065 108.205C67.9818 108.155 67.9718 108.099 67.9775 108.043C67.9832 107.988 68.0045 107.935 68.0389 107.89L100.531 66.1157C100.558 66.0813 100.592 66.0531 100.631 66.0332C100.67 66.0133 100.712 66.002 100.756 66.0002C100.8 65.9985 100.843 66.0062 100.883 66.023C100.924 66.0397 100.96 66.065 100.989 66.0972L139.322 107.887C139.361 107.93 139.387 107.983 139.396 108.041C139.406 108.098 139.398 108.157 139.375 108.21C139.351 108.263 139.313 108.308 139.264 108.34C139.215 108.371 139.159 108.388 139.1 108.388ZM136.333 107.79H138.421L100.787 66.7623L68.8873 107.775H71.8127L100.37 70.2926C100.396 70.258 100.43 70.2296 100.468 70.2093C100.506 70.189 100.549 70.1773 100.592 70.175C100.636 70.1726 100.679 70.1798 100.72 70.1959C100.76 70.212 100.796 70.2367 100.826 70.2683L136.333 107.79Z" fill="#262626"/>
<path d="M55.4403 108.372C55.3843 108.372 55.3294 108.356 55.2818 108.326C55.2343 108.297 55.196 108.255 55.1713 108.204C55.1467 108.154 55.1367 108.098 55.1424 108.042C55.1481 107.987 55.1693 107.934 55.2037 107.89L87.6962 66.1149C87.7453 66.0533 87.8167 66.0135 87.895 66.0041C87.9733 65.9947 88.0522 66.0165 88.1145 66.0647C88.1768 66.1129 88.2176 66.1837 88.2279 66.2617C88.2382 66.3397 88.2173 66.4187 88.1696 66.4814L55.6772 108.256C55.6492 108.292 55.6133 108.321 55.5722 108.341C55.5312 108.361 55.4861 108.372 55.4403 108.372Z" fill="#262626"/>
<path d="M42.6051 108.372C42.549 108.372 42.4941 108.357 42.4465 108.327C42.399 108.297 42.3607 108.255 42.3361 108.205C42.3114 108.155 42.3014 108.098 42.3071 108.043C42.3128 107.987 42.3341 107.934 42.3684 107.89L74.8609 66.1154C74.91 66.0538 74.9814 66.014 75.0597 66.0046C75.138 65.9952 75.2169 66.017 75.2792 66.0652C75.3415 66.1134 75.3823 66.1842 75.3926 66.2622C75.4029 66.3402 75.382 66.4191 75.3344 66.4818L42.8419 108.257C42.8139 108.293 42.778 108.322 42.737 108.342C42.6959 108.362 42.6508 108.372 42.6051 108.372Z" fill="#262626"/>
<path d="M29.77 108.372C29.7139 108.372 29.659 108.357 29.6115 108.327C29.5639 108.297 29.5256 108.255 29.501 108.205C29.4763 108.155 29.4663 108.098 29.472 108.043C29.4777 107.987 29.499 107.934 29.5334 107.89L62.0258 66.1154C62.0749 66.0538 62.1463 66.014 62.2247 66.0046C62.303 65.9952 62.3818 66.017 62.4442 66.0652C62.5065 66.1134 62.5472 66.1842 62.5575 66.2622C62.5679 66.3402 62.5469 66.4191 62.4993 66.4818L30.0068 108.257C29.9788 108.293 29.9429 108.322 29.9019 108.342C29.8608 108.362 29.8157 108.372 29.77 108.372Z" fill="#262626"/>
<path d="M16.9348 108.372C16.8787 108.372 16.8238 108.356 16.7763 108.326C16.7287 108.297 16.6904 108.255 16.6658 108.204C16.6411 108.154 16.6311 108.098 16.6368 108.042C16.6425 107.987 16.6638 107.934 16.6982 107.89L49.1906 66.1149C49.2397 66.0533 49.3111 66.0135 49.3895 66.0041C49.4678 65.9947 49.5466 66.0165 49.609 66.0647C49.6713 66.1129 49.712 66.1837 49.7223 66.2617C49.7327 66.3397 49.7117 66.4187 49.6641 66.4814L17.1716 108.256C17.1436 108.292 17.1077 108.321 17.0667 108.341C17.0256 108.361 16.9805 108.372 16.9348 108.372Z" fill="#262626"/>
<path d="M136.204 108.089L100.745 70.4292L71.9778 108.089H136.204Z" fill="white"/>
<path d="M136.204 108.388H71.9778C71.922 108.388 71.8672 108.373 71.8198 108.343C71.7723 108.314 71.734 108.272 71.7092 108.222C71.6845 108.172 71.6741 108.116 71.6795 108.061C71.6848 108.005 71.7056 107.952 71.7394 107.908L100.506 70.2481C100.533 70.2135 100.566 70.1852 100.605 70.1649C100.643 70.1446 100.686 70.133 100.729 70.1308C100.773 70.1285 100.816 70.1358 100.856 70.152C100.897 70.1682 100.933 70.193 100.963 70.2247L136.422 107.885C136.462 107.927 136.489 107.98 136.499 108.038C136.509 108.095 136.502 108.154 136.479 108.208C136.455 108.261 136.417 108.307 136.368 108.339C136.319 108.371 136.262 108.388 136.204 108.388ZM72.5829 107.79H135.511L100.768 70.8912L72.5829 107.79Z" fill="#262626"/>
<path d="M411.207 147.854H4.56429C4.10367 147.854 3.76868 147.728 3.76868 147.518C3.76868 147.35 4.10367 147.182 4.56429 147.182H411.207C411.668 147.182 412.003 147.308 412.003 147.518C412.003 147.728 411.584 147.854 411.207 147.854Z" fill="#262626"/>
<path d="M225.325 87.2002H226.683C227.304 87.2001 227.807 87.7029 227.807 88.3234C227.807 88.4981 227.766 88.6704 227.688 88.8266L226.004 92.1968L224.319 88.8266C224.041 88.2718 224.266 87.5969 224.821 87.319C224.977 87.2407 225.15 87.2 225.325 87.2002Z" fill="#FFA940"/>
<path d="M231 91.5169V92.8753C231.001 93.4958 230.498 93.9994 229.878 94.0001C229.703 94.0003 229.53 93.9596 229.374 93.8813L226.004 92.1967L229.374 90.511C229.929 90.2338 230.605 90.4598 230.882 91.0156C230.959 91.1712 231 91.3429 231 91.5169Z" fill="#FFA940"/>
<path d="M216.337 36.9108L216.213 35.8786C216.156 35.4072 215.72 35.0724 215.238 35.1307C215.102 35.1471 214.972 35.1943 214.858 35.2684L212.396 36.8655L215.166 37.8278C215.622 37.9863 216.126 37.7515 216.291 37.3032C216.337 37.1775 216.353 37.0432 216.337 36.9108Z" fill="white"/>
<path d="M215.621 38.128C215.734 38.1119 215.845 38.079 215.952 38.0294C216.229 37.9002 216.439 37.6733 216.542 37.3905C216.602 37.2274 216.623 37.0503 216.603 36.8787C216.603 36.8786 216.603 36.8786 216.603 36.8786L216.478 35.8464C216.442 35.5491 216.291 35.2838 216.05 35.0995C215.81 34.9151 215.51 34.8339 215.207 34.8708C215.03 34.8922 214.859 34.9542 214.711 35.0505L212.249 36.6473C212.164 36.7023 212.118 36.7992 212.13 36.8977C212.142 36.9961 212.209 37.0792 212.305 37.1124L215.075 38.0746C215.252 38.1363 215.439 38.1539 215.621 38.128ZM216.071 36.943C216.082 37.0346 216.071 37.1289 216.039 37.2158C215.984 37.3667 215.872 37.4877 215.724 37.5566C215.576 37.6255 215.41 37.6341 215.256 37.5808L212.99 36.7934L215.005 35.4865C215.084 35.4351 215.174 35.4023 215.269 35.3906C215.431 35.3709 215.591 35.4142 215.719 35.5125C215.847 35.6107 215.928 35.7521 215.947 35.9107L216.071 36.943Z" fill="#262626"/>
<path d="M212.463 33.0051L211.408 33.1333C210.926 33.1935 210.583 33.6245 210.641 34.0962C210.657 34.2274 210.704 34.353 210.778 34.4633L212.395 36.8653L213.395 34.1445C213.558 33.6958 213.32 33.2045 212.863 33.047C212.735 33.0029 212.598 32.9885 212.463 33.0051Z" fill="white"/>
<path d="M212.432 37.1244C212.531 37.1104 212.613 37.0443 212.647 36.9525L213.646 34.2317C213.86 33.647 213.549 33.0049 212.953 32.7998C212.787 32.7425 212.607 32.7236 212.432 32.7451L211.377 32.8733C210.748 32.952 210.299 33.5151 210.375 34.1293C210.397 34.2996 210.459 34.4651 210.555 34.6081L212.172 37.0102C212.227 37.0928 212.326 37.1373 212.427 37.1251C212.429 37.1249 212.43 37.1247 212.432 37.1244ZM211.429 33.3945C211.433 33.394 211.437 33.3934 211.44 33.393L212.494 33.265C212.494 33.265 212.494 33.2649 212.495 33.2649C212.588 33.2535 212.684 33.2636 212.773 33.2941C213.091 33.4035 213.256 33.746 213.143 34.0577L212.325 36.2838L211.002 34.3182C210.951 34.2421 210.918 34.1539 210.907 34.063C210.866 33.7389 211.1 33.4413 211.429 33.3945ZM212.463 33.005L212.462 33.0052L212.463 33.005Z" fill="#262626"/>
<path d="M84.0665 65.9996C84.0387 65.9996 84.0105 65.9956 83.9825 65.9872C83.8282 65.9407 83.7406 65.7772 83.787 65.6221L84.468 63.3427C84.5143 63.1876 84.6771 63.0997 84.8313 63.1463C84.9856 63.1928 85.0731 63.3563 85.0268 63.5114L84.3458 65.7907C84.3078 65.9176 84.1919 65.9996 84.0665 65.9996Z" fill="#262626"/>
<path d="M82.9554 65.6997C82.9276 65.6997 82.8994 65.6957 82.8714 65.6873C82.7171 65.6408 82.6296 65.4773 82.6759 65.3222L83.2806 63.2974C83.327 63.1423 83.4896 63.0543 83.6439 63.1008C83.7983 63.1473 83.8858 63.3108 83.8395 63.4659L83.2347 65.4908C83.1967 65.6177 83.0808 65.6997 82.9554 65.6997Z" fill="#262626"/>
<path d="M80.4771 56.5732L78.4 56.8664L80.4217 57.9268L80.4771 56.5732Z" fill="#262626"/>
<path d="M80.5908 58.5872C80.8334 58.9643 80.9649 59.4028 80.97 59.8518V61.134C80.97 62.3755 81.9713 63.3818 83.2066 63.3818H89.1033L85.1417 58.2246C84.8271 57.807 84.593 57.3341 84.4513 56.83C84.1141 55.692 82.9228 55.044 81.7905 55.383C80.6581 55.7218 80.0134 56.9191 80.3506 58.0571C80.4054 58.2424 80.485 58.4193 80.5869 58.5833L80.5908 58.5872Z" fill="white"/>
<path d="M89.1034 63.6749H83.2067C81.8126 63.6749 80.6784 62.535 80.6784 61.134V59.8518C80.674 59.4674 80.5628 59.0903 80.3564 58.763C80.3504 58.7552 80.3448 58.747 80.3396 58.7387C80.2238 58.5526 80.1335 58.3513 80.0711 58.1408C79.6886 56.8495 80.4226 55.4863 81.7073 55.1019C82.992 54.7174 84.3484 55.4551 84.731 56.7462C84.8645 57.221 85.0805 57.6575 85.3743 58.0475L89.3343 63.2025C89.4023 63.291 89.4142 63.4107 89.3652 63.5109C89.3162 63.6112 89.2147 63.6749 89.1034 63.6749ZM80.8247 58.4119C80.8287 58.4173 80.8326 58.4227 80.8358 58.4279C81.1088 58.852 81.256 59.3432 81.2619 59.8484V61.1339C81.2619 62.2116 82.1343 63.0885 83.2067 63.0885H88.5097L84.9109 58.4037C84.5712 57.9529 84.3227 57.451 84.1707 56.9096C83.8811 55.9324 82.8502 55.3718 81.8737 55.6639C80.8973 55.9561 80.3395 56.9921 80.6303 57.9734C80.676 58.1274 80.7413 58.2749 80.8247 58.4119Z" fill="#262626"/>
<path d="M81.6722 57.8006C81.9746 57.8006 82.2197 57.5543 82.2197 57.2504C82.2197 56.9465 81.9746 56.7002 81.6722 56.7002C81.3699 56.7002 81.1248 56.9465 81.1248 57.2504C81.1248 57.5543 81.3699 57.8006 81.6722 57.8006Z" fill="#262626"/>
<path d="M89.3393 63.2073L85.3793 58.0523C85.0855 57.6623 84.8694 57.2258 84.7362 56.7515C84.356 55.4597 83.0008 54.7194 81.7155 55.1016C81.3305 55.216 80.9765 55.4267 80.6917 55.7109C80.6079 55.7946 80.5826 55.9208 80.6276 56.0307C80.6726 56.1405 80.7792 56.2122 80.8973 56.2122H82.1388C82.5996 56.2125 82.9748 56.5896 82.9754 57.0526V57.1866C82.9755 57.4114 82.8884 57.6227 82.7303 57.7815C82.1764 58.3382 82.1764 59.244 82.7306 59.8012L83.0558 60.1271C83.214 60.2864 83.3012 60.4982 83.3012 60.7233V61.3341C83.3012 62.6275 84.3482 63.6796 85.635 63.6796H89.1085C89.2198 63.6796 89.3213 63.6161 89.3703 63.5158C89.4193 63.4155 89.4073 63.2959 89.3393 63.2073Z" fill="#FFA940"/>
<path d="M58.9309 61.1518H55.4616C55.3596 61.1518 55.2585 61.1317 55.1643 61.0927C55.07 61.0537 54.9843 60.9965 54.9122 60.9244C54.84 60.8522 54.7828 60.7666 54.7438 60.6724C54.7047 60.5782 54.6846 60.4772 54.6846 60.3753C54.6846 60.2733 54.7047 60.1723 54.7438 60.0781C54.7828 59.9839 54.84 59.8983 54.9122 59.8261C54.9843 59.754 55.07 59.6968 55.1643 59.6578C55.2585 59.6188 55.3596 59.5987 55.4616 59.5987H56.5799L55.3701 58.9475C55.2656 58.8902 55.1753 58.8101 55.1059 58.7133C55.0365 58.6165 54.9898 58.5053 54.9691 58.388C54.9452 58.2447 54.9621 58.0975 55.0178 57.9632C55.0735 57.829 55.1659 57.7131 55.2842 57.6287C55.4026 57.5443 55.5424 57.4948 55.6875 57.4858C55.8327 57.4769 55.9774 57.5089 56.1053 57.5781L59.854 59.5985" fill="white"/>
<path d="M55.4616 61.432H58.9309C59.0053 61.432 59.0767 61.4025 59.1293 61.3499C59.1819 61.2973 59.2115 61.226 59.2115 61.1517C59.2115 61.0773 59.1819 61.006 59.1293 60.9534C59.0767 60.9008 59.0053 60.8713 58.9309 60.8713H55.4616C55.385 60.8716 55.3094 60.8543 55.2405 60.8209C55.1716 60.7874 55.1113 60.7386 55.0643 60.6782C55.0077 60.6044 54.973 60.5162 54.9641 60.4237C54.9552 60.3312 54.9723 60.238 55.0137 60.1548C55.0551 60.0715 55.119 60.0015 55.1982 59.9527C55.2773 59.9039 55.3686 59.8783 55.4616 59.8787H56.5799C56.6424 59.8787 56.7031 59.8579 56.7523 59.8195C56.8016 59.7812 56.8367 59.7275 56.8519 59.6669C56.8672 59.6064 56.8618 59.5425 56.8367 59.4854C56.8115 59.4283 56.768 59.3812 56.713 59.3515L55.5031 58.7002C55.4361 58.6631 55.3782 58.6115 55.3336 58.5492C55.289 58.4869 55.2589 58.4154 55.2455 58.34C55.2306 58.2486 55.2416 58.1548 55.2773 58.0693C55.313 57.9837 55.372 57.9099 55.4476 57.8562C55.5231 57.8025 55.6122 57.771 55.7048 57.7653C55.7973 57.7596 55.8896 57.78 55.9712 57.824L59.721 59.8452C59.7535 59.8632 59.7892 59.8746 59.8261 59.8787C59.863 59.8828 59.9004 59.8796 59.936 59.8692C59.9717 59.8587 60.0049 59.8414 60.0337 59.818C60.0626 59.7946 60.0865 59.7658 60.1042 59.7331C60.1218 59.7005 60.1327 59.6646 60.1364 59.6277C60.14 59.5907 60.1363 59.5535 60.1255 59.518C60.1146 59.4825 60.0968 59.4495 60.073 59.421C60.0493 59.3924 60.0202 59.3688 59.9872 59.3516L56.2385 57.3309C56.0643 57.2368 55.8672 57.1934 55.6696 57.2057C55.472 57.218 55.2818 57.2855 55.1207 57.4006C54.9595 57.5156 54.834 57.6736 54.7583 57.8565C54.6827 58.0394 54.6599 58.2398 54.6926 58.435C54.7203 58.5935 54.7833 58.7439 54.8768 58.8749C54.9703 59.0059 55.0921 59.1143 55.2331 59.192L55.4676 59.3183H55.4621C55.1816 59.3183 54.9126 59.4296 54.7143 59.6278C54.5159 59.8261 54.4045 60.0949 54.4045 60.3752C54.4045 60.6555 54.5159 60.9244 54.7143 61.1226C54.9126 61.3208 55.1816 61.4321 55.4621 61.4321L55.4616 61.432Z" fill="#262626"/>
<path d="M66.2227 65.5999C66.2663 65.6 66.3092 65.5898 66.3482 65.5704C66.3872 65.5509 66.4211 65.5226 66.4472 65.4878C66.4734 65.453 66.4911 65.4125 66.4988 65.3697C66.5066 65.3268 66.5043 65.2828 66.4921 65.241L65.2787 61.0827C65.2689 61.0467 65.252 61.0131 65.2291 60.9838C65.2062 60.9544 65.1776 60.9299 65.1451 60.9117C65.1126 60.8935 65.0768 60.882 65.0397 60.8778C65.0027 60.8736 64.9652 60.8768 64.9295 60.8872C64.8937 60.8976 64.8603 60.9151 64.8314 60.9385C64.8024 60.962 64.7785 60.9909 64.7608 61.0238C64.7432 61.0566 64.7323 61.0926 64.7288 61.1296C64.7252 61.1667 64.7291 61.2041 64.7402 61.2397L65.9536 65.398C65.9705 65.4562 66.0059 65.5074 66.0545 65.5438C66.103 65.5802 66.162 65.5999 66.2227 65.5999Z" fill="#262626"/>
<path d="M67.8796 65.6C67.9232 65.6 67.9662 65.5899 68.0051 65.5704C68.0441 65.551 68.078 65.5227 68.1042 65.4879C68.1303 65.453 68.148 65.4126 68.1558 65.3697C68.1635 65.3269 68.1612 65.2828 68.149 65.241L66.9356 61.0827C66.9148 61.0113 66.8664 60.9512 66.8012 60.9154C66.736 60.8796 66.6592 60.8713 66.5878 60.8921C66.5163 60.9129 66.4561 60.9612 66.4203 61.0264C66.3845 61.0916 66.3762 61.1684 66.397 61.2397L67.6104 65.398C67.6274 65.4563 67.6628 65.5075 67.7113 65.5439C67.7599 65.5803 67.8189 65.6 67.8796 65.6Z" fill="#262626"/>
<path d="M71.4523 51.4102H74.8L71.6861 53.0364L71.4523 51.4102Z" fill="#262626"/>
<path d="M67.375 61.1393C68.2179 61.1383 69.0261 60.8032 69.6221 60.2075C70.2182 59.6118 70.5534 58.8041 70.5544 57.9616V55.999C70.5664 55.2568 70.785 54.5326 71.1855 53.9075C71.5355 53.3514 71.6951 52.6967 71.6403 52.0421C71.5824 51.3299 71.2699 50.6624 70.7601 50.1615C70.2456 49.6514 69.5658 49.3416 68.8431 49.2879C68.7695 49.2828 68.696 49.2803 68.6237 49.2803C67.9726 49.2817 67.3393 49.4928 66.8176 49.8821C66.2958 50.2715 65.9135 50.8185 65.7273 51.4421C65.5018 52.2508 65.1237 53.009 64.6131 53.6758L58.8472 61.1391L67.375 61.1393Z" fill="white"/>
<path d="M68.6237 49.5608C68.0334 49.5618 67.4592 49.7529 66.986 50.1056C66.5129 50.4584 66.1661 50.9541 65.9969 51.5193C65.762 52.3619 65.3679 53.1518 64.836 53.8464L59.4182 60.859H67.3749C68.1435 60.8581 68.8803 60.5526 69.4238 60.0094C69.9672 59.4663 70.2729 58.7299 70.2738 57.9617V55.9991C70.2861 55.2036 70.5199 54.4272 70.9492 53.7571C71.2665 53.2522 71.4109 52.6578 71.3606 52.0637C71.3079 51.4192 71.0249 50.8152 70.5633 50.362C70.0963 49.8984 69.4789 49.6167 68.8225 49.5678C68.7564 49.5631 68.6895 49.5608 68.6237 49.5608ZM68.6237 49C68.7026 49 68.7819 49.0028 68.8618 49.0083C69.6517 49.0652 70.395 49.4034 70.9565 49.9616C71.5148 50.5087 71.8568 51.2388 71.9196 52.0177C71.9814 52.7327 71.8073 53.4483 71.424 54.0551C71.0502 54.6356 70.8461 55.3089 70.8349 55.9991V57.9617C70.8338 58.8785 70.4689 59.7575 69.8203 60.4057C69.1717 61.054 68.2922 61.4187 67.3749 61.4197H58.2761L64.3919 53.5037C64.8806 52.8648 65.2425 52.1384 65.4579 51.3635C65.6595 50.6807 66.0768 50.0815 66.6474 49.6554C67.2181 49.2294 67.9114 48.9995 68.6237 49Z" fill="#262626"/>
<path d="M69.7504 52.84C69.2856 52.84 68.9088 52.4634 68.9088 51.9989C68.9088 51.5343 69.2856 51.1577 69.7504 51.1577C70.2152 51.1577 70.592 51.5343 70.592 51.9989C70.592 52.4634 70.2152 52.84 69.7504 52.84Z" fill="#262626"/>
<path d="M58.2763 61.4291H63.6346C64.4702 61.4288 65.2716 61.0968 65.8625 60.5062C66.4534 59.9156 66.7856 59.1148 66.7859 58.2795L67.0983 56.3533C67.158 56.2666 67.2256 56.1856 67.3003 56.1113L67.8052 55.6066C67.9687 55.4455 68.0984 55.2534 68.1867 55.0415C68.275 54.8297 68.3202 54.6024 68.3195 54.3729C68.3182 53.9099 68.1333 53.4663 67.8052 53.1393C67.4778 52.8119 67.293 52.3685 67.2909 51.9056V51.7C67.2909 51.4714 67.3363 51.245 67.4244 51.034C67.5125 50.823 67.6416 50.6315 67.8042 50.4708C67.9668 50.31 68.1598 50.183 68.3718 50.0972C68.5839 50.0114 68.8108 49.9685 69.0396 49.971H70.9566C70.5512 49.5678 70.0481 49.2766 69.4964 49.126C68.9447 48.9754 68.3633 48.9705 67.8091 49.1117C67.2549 49.253 66.7469 49.5357 66.3348 49.932C65.9227 50.3284 65.6206 50.8249 65.4581 51.3729C65.2426 52.1477 64.8807 52.8742 64.392 53.5131L58.2763 61.4291Z" fill="url(#paint0_linear)"/>
<path d="M60.8551 60.8362L64.6797 55.8735V58.0885C64.6786 58.8169 64.3885 59.5151 63.8732 60.0301C63.3579 60.5452 62.6593 60.835 61.9305 60.8362H60.8551Z" fill="#262626"/>
<path d="M137.482 156.451C137.475 156.453 137.468 156.454 137.46 156.454C137.373 156.464 137.286 156.439 137.217 156.383C137.148 156.328 137.104 156.248 137.093 156.159L135.141 139.296C135.132 139.209 135.158 139.122 135.212 139.053C135.267 138.985 135.345 138.941 135.432 138.931C135.518 138.922 135.605 138.947 135.673 139.001C135.742 139.055 135.787 139.134 135.798 139.222L137.75 156.085C137.76 156.169 137.738 156.254 137.688 156.322C137.638 156.39 137.565 156.436 137.482 156.451Z" fill="#262626"/>
<path d="M135.126 136.044C135.061 136.056 134.993 136.048 134.933 136.021C134.872 135.993 134.82 135.948 134.785 135.891C134.75 135.834 134.732 135.768 134.735 135.701C134.737 135.634 134.76 135.569 134.799 135.516L136.154 133.656C136.205 133.585 136.283 133.538 136.37 133.525C136.457 133.512 136.545 133.534 136.616 133.587C136.687 133.64 136.734 133.719 136.747 133.807C136.76 133.894 136.739 133.984 136.687 134.055L135.332 135.914C135.282 135.983 135.209 136.029 135.126 136.044Z" fill="#262626"/>
<path d="M135.126 136.044C135.077 136.053 135.028 136.051 134.981 136.038C134.934 136.025 134.89 136.002 134.852 135.97L133.103 134.475C133.07 134.446 133.042 134.412 133.022 134.373C133.002 134.334 132.99 134.291 132.986 134.247C132.979 134.159 133.006 134.071 133.062 134.003C133.119 133.936 133.2 133.893 133.287 133.886C133.375 133.879 133.461 133.907 133.529 133.964L134.64 134.914L134.479 133.53C134.473 133.486 134.476 133.441 134.488 133.398C134.499 133.356 134.519 133.316 134.546 133.281C134.573 133.246 134.606 133.217 134.645 133.195C134.683 133.174 134.725 133.16 134.768 133.155C134.812 133.15 134.856 133.154 134.898 133.166C134.94 133.179 134.98 133.2 135.014 133.228C135.048 133.256 135.076 133.29 135.097 133.329C135.118 133.368 135.131 133.411 135.136 133.455L135.394 135.677C135.403 135.761 135.381 135.846 135.331 135.914C135.282 135.982 135.208 136.028 135.125 136.043L135.126 136.044Z" fill="#262626"/>
<path d="M138.341 139.335L138.223 138.324C138.119 137.441 138.32 136.551 138.793 135.804L139.14 135.252L130.974 136.179L131.439 136.638C132.07 137.257 132.47 138.079 132.569 138.961L132.687 139.972C132.731 140.347 132.847 140.71 133.029 141.04C133.21 141.37 133.455 141.661 133.747 141.896C134.04 142.131 134.376 142.306 134.734 142.41C135.093 142.514 135.469 142.546 135.839 142.504C136.21 142.464 136.569 142.35 136.896 142.169C137.223 141.987 137.511 141.743 137.743 141.448C137.976 141.154 138.148 140.815 138.251 140.453C138.353 140.09 138.384 139.71 138.341 139.335Z" fill="#FFA940"/>
<path d="M176.838 146.911L174.611 142.943C174.352 142.479 174.519 141.894 174.985 141.635C175.043 141.603 175.104 141.577 175.167 141.557C175.594 141.427 176.055 141.606 176.281 141.99L177.312 143.745L177.288 141.159C177.285 140.681 177.672 140.291 178.151 140.289C178.153 140.289 178.155 140.289 178.156 140.289C178.621 140.288 179.004 140.653 179.024 141.117L179.132 143.906L180.009 142.566C180.259 142.188 180.76 142.066 181.157 142.286L181.272 142.351C181.686 142.586 181.832 143.11 181.601 143.524L179.675 146.911" fill="white"/>
<path d="M176.839 147.2C176.737 147.2 176.639 147.147 176.586 147.052L174.359 143.085C174.195 142.792 174.156 142.454 174.248 142.133C174.34 141.812 174.551 141.546 174.844 141.383C174.919 141.341 174.999 141.307 175.081 141.282C175.64 141.111 176.235 141.343 176.53 141.844L177.012 142.665L176.998 141.162C176.995 140.524 177.511 140.004 178.15 140C178.15 140 178.15 140 178.151 140C178.778 140 179.286 140.485 179.313 141.104L179.386 142.99L179.767 142.409C180.099 141.906 180.771 141.741 181.298 142.034L181.414 142.099C181.964 142.412 182.161 143.114 181.853 143.665L179.927 147.054C179.848 147.193 179.672 147.241 179.533 147.162C179.394 147.084 179.345 146.908 179.424 146.769L181.349 143.382C181.502 143.109 181.403 142.758 181.129 142.602L181.015 142.538C180.753 142.392 180.417 142.474 180.251 142.725L179.375 144.064C179.306 144.169 179.177 144.218 179.055 144.184C178.934 144.151 178.848 144.043 178.843 143.917L178.735 141.128C178.722 140.82 178.468 140.577 178.157 140.577C178.157 140.577 178.156 140.577 178.156 140.577C177.834 140.579 177.576 140.839 177.577 141.157L177.601 143.742C177.603 143.873 177.516 143.988 177.389 144.023C177.263 144.058 177.129 144.003 177.062 143.891L176.031 142.136C175.872 141.866 175.552 141.742 175.251 141.833C175.209 141.847 175.166 141.865 175.125 141.887C174.968 141.975 174.854 142.118 174.805 142.291C174.755 142.464 174.776 142.646 174.864 142.803L177.091 146.771C177.169 146.91 177.119 147.085 176.98 147.163C176.935 147.188 176.887 147.2 176.839 147.2Z" fill="#262626"/>
<path d="M208.004 147.6C207.931 147.6 207.861 147.575 207.804 147.529C207.747 147.482 207.707 147.418 207.691 147.346L206.456 141.77C206.447 141.728 206.445 141.685 206.453 141.643C206.46 141.6 206.475 141.56 206.498 141.524C206.52 141.488 206.549 141.456 206.584 141.432C206.618 141.407 206.657 141.389 206.698 141.38C206.781 141.361 206.868 141.376 206.94 141.423C207.012 141.469 207.063 141.542 207.082 141.627L208.317 147.202C208.328 147.25 208.328 147.3 208.317 147.347C208.306 147.395 208.285 147.439 208.255 147.478C208.225 147.516 208.186 147.547 208.143 147.568C208.1 147.589 208.052 147.6 208.004 147.6Z" fill="#262626"/>
<path d="M206.4 141.74C207.327 141.74 208.079 140.976 208.079 140.033C208.079 139.09 207.327 138.326 206.4 138.326C205.473 138.326 204.721 139.09 204.721 140.033C204.721 140.976 205.473 141.74 206.4 141.74Z" fill="white"/>
<path d="M206.4 142.066C206.004 142.066 205.618 141.947 205.289 141.724C204.96 141.5 204.704 141.183 204.552 140.811C204.401 140.44 204.361 140.031 204.438 139.636C204.516 139.242 204.706 138.88 204.986 138.595C205.266 138.311 205.622 138.118 206.01 138.039C206.398 137.961 206.8 138.001 207.165 138.155C207.531 138.309 207.843 138.569 208.063 138.904C208.283 139.238 208.4 139.631 208.4 140.033C208.399 140.572 208.189 141.089 207.814 141.47C207.439 141.851 206.93 142.066 206.4 142.066ZM206.4 138.652C206.131 138.652 205.869 138.733 205.645 138.885C205.422 139.037 205.248 139.252 205.145 139.505C205.042 139.757 205.015 140.035 205.068 140.302C205.12 140.57 205.25 140.816 205.44 141.009C205.63 141.203 205.872 141.334 206.135 141.387C206.399 141.441 206.672 141.413 206.92 141.309C207.168 141.204 207.38 141.027 207.529 140.8C207.679 140.573 207.758 140.306 207.758 140.033C207.758 139.667 207.615 139.316 207.36 139.057C207.105 138.798 206.76 138.653 206.4 138.652Z" fill="#262626"/>
<path d="M145.913 40.7144H110.687C118.247 40.7144 121.073 32.7402 125.057 32.6859C129.042 32.6317 130.603 38.4165 134.796 37.1085C140.848 35.2247 143.27 40.0309 145.913 40.7144Z" fill="white"/>
<path d="M145.913 40.9999H110.687C110.528 40.9999 110.4 40.8721 110.4 40.7143C110.4 40.5566 110.528 40.4288 110.687 40.4288C114.964 40.4288 117.654 37.8367 120.027 35.5497C121.768 33.8728 123.271 32.4246 125.054 32.4003C125.074 32.4 125.094 32.3999 125.114 32.3999C127.024 32.3999 128.382 33.6401 129.694 34.8399C131.188 36.2051 132.6 37.4944 134.71 36.8359C139.017 35.4953 141.537 37.4236 143.562 38.9731C144.45 39.6526 145.217 40.2393 145.985 40.4379C146.125 40.4741 146.216 40.6079 146.198 40.7505C146.179 40.8931 146.058 40.9999 145.913 40.9999ZM114.083 40.4288H144.607C144.158 40.1492 143.703 39.801 143.213 39.4259C141.293 37.9571 138.903 36.129 134.881 37.381C134.424 37.5238 133.995 37.5876 133.591 37.5877C131.853 37.5878 130.562 36.4083 129.306 35.2606C128.005 34.0714 126.774 32.9469 125.061 32.9714C123.506 32.9926 122.079 34.3678 120.426 35.9601C118.741 37.5841 116.758 39.4953 114.083 40.4288Z" fill="#262626"/>
<path d="M180 35.2002H154.2C159.737 35.2002 161.807 29.241 164.725 29.2005C167.643 29.1599 168.787 33.4829 171.858 32.5055C176.29 31.0977 178.064 34.6894 180 35.2002Z" fill="#FFA940"/>
<path d="M31.6 42H10.2C14.7928 42 16.5094 37.034 18.9301 37.0002C21.3508 36.9664 22.2995 40.569 24.8462 39.7544C28.5229 38.5813 29.9943 41.5744 31.6 42Z" fill="#FFA940"/>
</g>
<defs>
<linearGradient id="paint0_linear" x1="70.9566" y1="49.0093" x2="58.5534" y2="61.6866" gradientUnits="userSpaceOnUse">
<stop stop-color="#2B6B9F"/>
<stop offset="1" stop-color="#D5FFCB"/>
</linearGradient>
<clipPath id="clip0">
<rect width="240" height="160" fill="white"/>
</clipPath>
</defs>
</svg>
