<svg width="25" height="25" viewBox="0 0 25 25" fill="none" xmlns="http://www.w3.org/2000/svg">
<path d="M21.6875 7.44531H3.3125C3.20937 7.44531 3.125 7.52969 3.125 7.63281V9.13281C3.125 9.23594 3.20937 9.32031 3.3125 9.32031H21.6875C21.7906 9.32031 21.875 9.23594 21.875 9.13281V7.63281C21.875 7.52969 21.7906 7.44531 21.6875 7.44531ZM21.6875 14.7578H3.3125C3.20937 14.7578 3.125 14.8422 3.125 14.9453V16.4453C3.125 16.5484 3.20937 16.6328 3.3125 16.6328H21.6875C21.7906 16.6328 21.875 16.5484 21.875 16.4453V14.9453C21.875 14.8422 21.7906 14.7578 21.6875 14.7578Z" fill="#262626"/>
</svg>
