<svg width="40" height="40" viewBox="0 0 40 40" fill="none" xmlns="http://www.w3.org/2000/svg">
<g clip-path="url(#clip0)">
<path d="M16.332 21.377L18.5464 25.1419L20.0979 23.5904L16.332 21.377Z" fill="url(#paint0_linear)"/>
<path d="M19.5571 26.1531L23.3215 28.3659L21.1083 24.6016L19.5571 26.1531Z" fill="url(#paint1_linear)"/>
<path d="M19.2856 7.71777V8.49292H20.7142V7.71777C20.2415 7.79895 19.7584 7.79895 19.2856 7.71777Z" fill="url(#paint2_linear)"/>
<path d="M20 9.92188C11.7157 9.92188 5 16.6376 5 24.9219C5 33.2062 11.7157 39.9219 20 39.9219C28.2843 39.9219 35 33.2062 35 24.9219C34.9906 16.6415 28.2804 9.93134 20 9.92188ZM20 38.4934C12.5046 38.4934 6.42853 32.4173 6.42853 24.9219C6.42853 17.4265 12.5046 11.3504 20 11.3504C27.4951 11.3504 33.5715 17.4265 33.5715 24.9219C33.5633 32.4137 27.4918 38.4851 20 38.4934Z" fill="url(#paint3_linear)"/>
<path d="M20.0001 6.35041C21.7753 6.35041 23.2142 4.9115 23.2142 3.13629C23.2142 1.36109 21.7753 -0.078125 20.0001 -0.078125C18.2249 -0.078125 16.7856 1.36109 16.7856 3.13629C16.7878 4.91059 18.2258 6.34858 20.0001 6.35041ZM20.0001 2.42188C20.3947 2.42188 20.7142 2.7417 20.7142 3.13629C20.7142 3.53058 20.3943 3.85041 20.0001 3.85041C19.6055 3.85041 19.2856 3.53058 19.2856 3.13629C19.2856 2.7417 19.6055 2.42188 20.0001 2.42188Z" fill="url(#paint4_linear)"/>
<path d="M19.9999 12.7793C13.2936 12.7793 7.85693 18.216 7.85693 24.9223C7.85693 31.6285 13.2936 37.0652 19.9999 37.0652C26.7061 37.0652 32.1428 31.6285 32.1428 24.9223C32.1352 18.2191 26.7031 12.7869 19.9999 12.7793ZM19.2855 14.9222C19.2855 14.5277 19.6053 14.2078 19.9999 14.2078C20.3945 14.2078 20.714 14.5277 20.714 14.9222V16.3508C20.714 16.7454 20.3942 17.0652 19.9999 17.0652C19.6053 17.0652 19.2855 16.7454 19.2855 16.3508V14.9222ZM11.4284 25.6367H9.99988C9.60529 25.6367 9.28546 25.3168 9.28546 24.9223C9.28546 24.5277 9.60529 24.2078 9.99988 24.2078H11.4284C11.823 24.2078 12.1428 24.5277 12.1428 24.9223C12.1428 25.3168 11.823 25.6367 11.4284 25.6367ZM20.714 34.9223C20.714 35.3169 20.3942 35.6364 19.9999 35.6364C19.6053 35.6364 19.2855 35.3169 19.2855 34.9223V33.4937C19.2855 33.0991 19.6053 32.7793 19.9999 32.7793C20.3945 32.7793 20.714 33.0991 20.714 33.4937V34.9223ZM25.8376 30.8829C25.6075 31.1131 25.2511 31.1585 24.9706 30.9937L18.037 26.9172C18.0306 26.9135 18.0278 26.9065 18.0211 26.9022C17.9815 26.872 17.9454 26.8375 17.9134 26.7994C17.8691 26.7634 17.8295 26.7216 17.7956 26.6758C17.7919 26.67 17.7855 26.6679 17.7828 26.6624L13.7047 19.7288C13.5039 19.3891 13.6159 18.9512 13.9556 18.7501C14.1799 18.617 14.4588 18.617 14.6834 18.7501L21.6176 22.8266C21.624 22.8309 21.6271 22.8379 21.6335 22.8416C21.6726 22.8721 21.7086 22.9066 21.7412 22.9444C21.7852 22.9807 21.8245 23.0222 21.8584 23.068C21.8621 23.0735 21.8685 23.0765 21.8718 23.0823L25.9484 30.0156C26.1135 30.2964 26.0677 30.6528 25.8376 30.8829ZM29.9999 25.6367H28.5714C28.1768 25.6367 27.8569 25.3168 27.8569 24.9223C27.8569 24.5277 28.1768 24.2078 28.5714 24.2078H29.9999C30.3945 24.2078 30.7143 24.5277 30.7143 24.9223C30.714 25.3168 30.3942 25.6367 29.9999 25.6367Z" fill="url(#paint5_linear)"/>
</g>
<defs>
<linearGradient id="paint0_linear" x1="16.332" y1="21.377" x2="20.0928" y2="25.1428" gradientUnits="userSpaceOnUse">
<stop stop-color="#2B6B9F"/>
<stop offset="1" stop-color="#D5FFCB"/>
</linearGradient>
<linearGradient id="paint1_linear" x1="19.5571" y1="24.6016" x2="23.3173" y2="28.3659" gradientUnits="userSpaceOnUse">
<stop stop-color="#2B6B9F"/>
<stop offset="1" stop-color="#D5FFCB"/>
</linearGradient>
<linearGradient id="paint2_linear" x1="19.2856" y1="7.71777" x2="19.9344" y2="8.91471" gradientUnits="userSpaceOnUse">
<stop stop-color="#2B6B9F"/>
<stop offset="1" stop-color="#D5FFCB"/>
</linearGradient>
<linearGradient id="paint3_linear" x1="5" y1="9.92187" x2="34.9668" y2="39.9219" gradientUnits="userSpaceOnUse">
<stop stop-color="#2B6B9F"/>
<stop offset="1" stop-color="#D5FFCB"/>
</linearGradient>
<linearGradient id="paint4_linear" x1="16.7856" y1="-0.078125" x2="23.2071" y2="6.3504" gradientUnits="userSpaceOnUse">
<stop stop-color="#2B6B9F"/>
<stop offset="1" stop-color="#D5FFCB"/>
</linearGradient>
<linearGradient id="paint5_linear" x1="7.85693" y1="12.7793" x2="32.116" y2="37.0652" gradientUnits="userSpaceOnUse">
<stop stop-color="#2B6B9F"/>
<stop offset="1" stop-color="#D5FFCB"/>
</linearGradient>
<clipPath id="clip0">
<rect width="40" height="40" fill="white"/>
</clipPath>
</defs>
</svg>
