<svg width="32" height="32" viewBox="0 0 32 32" fill="none" xmlns="http://www.w3.org/2000/svg">
<path d="M7.19145 4.62793L3.24125 12.4131C2.10893 14.6458 3.00078 17.3735 5.23344 18.5059C5.28569 18.5325 5.33842 18.5579 5.3914 18.5823C5.47319 18.3594 5.55132 18.1357 5.64922 17.9167L9.60161 9.0708L7.19145 4.62793Z" fill="url(#paint0_linear)"/>
<path d="M24.0822 17.7639L15.0117 0L6.77706 18.4221C4.70114 23.0667 6.78366 28.5149 11.4282 30.5908C11.5866 30.6616 11.747 30.7278 11.9091 30.7896C13.8977 31.5461 16.0861 31.5925 18.1049 30.9214L18.7861 30.6941C23.6132 29.085 26.2219 23.8669 24.6128 19.0396C24.4665 18.6016 24.2878 18.175 24.0778 17.7639H24.0822ZM18.9675 28.4009C18.6633 28.5569 18.29 28.4368 18.134 28.1326C17.978 27.8284 18.0981 27.4551 18.4023 27.2991C18.405 27.2979 18.4077 27.2964 18.4101 27.2952C20.8508 26.0732 22.3955 23.5811 22.4038 20.8516C22.4057 20.5112 22.6823 20.2361 23.0229 20.2361H23.0266C23.3672 20.2383 23.6421 20.5149 23.6421 20.8555C23.6333 24.0513 21.8252 26.97 18.9675 28.4009Z" fill="url(#paint1_linear)"/>
<path d="M26.1187 28.2852H27.3569V29.5234H26.1187V28.2852Z" fill="url(#paint2_linear)"/>
<path d="M27.9761 25.8086H29.2144V27.0469H27.9761V25.8086Z" fill="url(#paint3_linear)"/>
<path d="M24.2612 30.7617H25.4995V32H24.2612V30.7617Z" fill="url(#paint4_linear)"/>
<defs>
<linearGradient id="paint0_linear" x1="2.75006" y1="4.62793" x2="13.7866" y2="10.0528" gradientUnits="userSpaceOnUse">
<stop stop-color="#2B6B9F"/>
<stop offset="1" stop-color="#D5FFCB"/>
</linearGradient>
<linearGradient id="paint1_linear" x1="5.97302" y1="0" x2="33.8462" y2="16.9907" gradientUnits="userSpaceOnUse">
<stop stop-color="#2B6B9F"/>
<stop offset="1" stop-color="#D5FFCB"/>
</linearGradient>
<linearGradient id="paint2_linear" x1="26.1187" y1="28.2852" x2="27.3556" y2="29.5234" gradientUnits="userSpaceOnUse">
<stop stop-color="#2B6B9F"/>
<stop offset="1" stop-color="#D5FFCB"/>
</linearGradient>
<linearGradient id="paint3_linear" x1="27.9761" y1="25.8086" x2="29.213" y2="27.0469" gradientUnits="userSpaceOnUse">
<stop stop-color="#2B6B9F"/>
<stop offset="1" stop-color="#D5FFCB"/>
</linearGradient>
<linearGradient id="paint4_linear" x1="24.2612" y1="30.7617" x2="25.4981" y2="32" gradientUnits="userSpaceOnUse">
<stop stop-color="#2B6B9F"/>
<stop offset="1" stop-color="#D5FFCB"/>
</linearGradient>
</defs>
</svg>
