<svg width="40" height="40" viewBox="0 0 40 40" fill="none" xmlns="http://www.w3.org/2000/svg">
<path d="M20.5 3C10.8359 3 3 10.8359 3 20.5C3 30.1641 10.8359 38 20.5 38C30.1641 38 38 30.1641 38 20.5C38 10.8359 30.1641 3 20.5 3ZM30.7734 30.7734C29.4375 32.1094 27.8828 33.1562 26.1523 33.8906C24.3672 34.6484 22.4648 35.0312 20.5 35.0312C18.5352 35.0312 16.6328 34.6484 14.8438 33.8906C13.1159 33.1609 11.5464 32.1022 10.2227 30.7734C8.88672 29.4375 7.83984 27.8828 7.10547 26.1523C6.35156 24.3672 5.96875 22.4648 5.96875 20.5C5.96875 18.5352 6.35156 16.6328 7.10938 14.8438C7.83909 13.1159 8.8978 11.5464 10.2266 10.2227C11.5625 8.88672 13.1172 7.83984 14.8477 7.10547C16.6328 6.35156 18.5352 5.96875 20.5 5.96875C22.4648 5.96875 24.3672 6.35156 26.1562 7.10938C27.8841 7.83909 29.4536 8.8978 30.7773 10.2266C32.1133 11.5625 33.1602 13.1172 33.8945 14.8477C34.6484 16.6328 35.0312 18.5352 35.0312 20.5C35.0312 22.4648 34.6484 24.3672 33.8906 26.1562C33.1618 27.8834 32.1029 29.4518 30.7734 30.7734Z" fill="#262626"/>
<path d="M11.7071 13.2929C11.3166 12.9024 10.6834 12.9024 10.2929 13.2929C9.90237 13.6834 9.90237 14.3166 10.2929 14.7071L11.7071 13.2929ZM15.2929 19.7071C15.6834 20.0976 16.3166 20.0976 16.7071 19.7071C17.0976 19.3166 17.0976 18.6834 16.7071 18.2929L15.2929 19.7071ZM10.2929 14.7071L15.2929 19.7071L16.7071 18.2929L11.7071 13.2929L10.2929 14.7071Z" fill="#262626"/>
<path d="M15.2929 13.2929C15.6834 12.9024 16.3166 12.9024 16.7071 13.2929C17.0976 13.6834 17.0976 14.3166 16.7071 14.7071L15.2929 13.2929ZM11.7071 19.7071C11.3166 20.0976 10.6834 20.0976 10.2929 19.7071C9.90237 19.3166 9.90237 18.6834 10.2929 18.2929L11.7071 19.7071ZM16.7071 14.7071L11.7071 19.7071L10.2929 18.2929L15.2929 13.2929L16.7071 14.7071Z" fill="#262626"/>
<path d="M29.2929 13.2929C29.6834 12.9024 30.3166 12.9024 30.7071 13.2929C31.0976 13.6834 31.0976 14.3166 30.7071 14.7071L29.2929 13.2929ZM25.7071 19.7071C25.3166 20.0976 24.6834 20.0976 24.2929 19.7071C23.9024 19.3166 23.9024 18.6834 24.2929 18.2929L25.7071 19.7071ZM30.7071 14.7071L25.7071 19.7071L24.2929 18.2929L29.2929 13.2929L30.7071 14.7071Z" fill="#262626"/>
<path d="M25.7071 13.2929C25.3166 12.9024 24.6834 12.9024 24.2929 13.2929C23.9024 13.6834 23.9024 14.3166 24.2929 14.7071L25.7071 13.2929ZM29.2929 19.7071C29.6834 20.0976 30.3166 20.0976 30.7071 19.7071C31.0976 19.3166 31.0976 18.6834 30.7071 18.2929L29.2929 19.7071ZM24.2929 14.7071L29.2929 19.7071L30.7071 18.2929L25.7071 13.2929L24.2929 14.7071Z" fill="#262626"/>
<rect x="14.5" y="23.5" width="11" height="1" rx="0.5" fill="#262626" stroke="#262626" stroke-linecap="round"/>
</svg>
