<svg width="40" height="40" viewBox="0 0 40 40" fill="none" xmlns="http://www.w3.org/2000/svg">
<path d="M11.2072 12.7929C10.8167 12.4024 10.1835 12.4024 9.79298 12.7929C9.40246 13.1834 9.40246 13.8166 9.79298 14.2071L11.2072 12.7929ZM14.793 19.2071C15.1835 19.5976 15.8167 19.5976 16.2072 19.2071C16.5977 18.8166 16.5977 18.1834 16.2072 17.7929L14.793 19.2071ZM9.79298 14.2071L14.793 19.2071L16.2072 17.7929L11.2072 12.7929L9.79298 14.2071Z" fill="white"/>
<path d="M14.793 12.7929C15.1835 12.4024 15.8166 12.4024 16.2072 12.7929C16.5977 13.1834 16.5977 13.8166 16.2072 14.2071L14.793 12.7929ZM11.2072 19.2071C10.8166 19.5976 10.1835 19.5976 9.79295 19.2071C9.40243 18.8166 9.40243 18.1834 9.79295 17.7929L11.2072 19.2071ZM16.2072 14.2071L11.2072 19.2071L9.79295 17.7929L14.793 12.7929L16.2072 14.2071Z" fill="white"/>
<path d="M28.7926 12.7929C29.1831 12.4024 29.8163 12.4024 30.2068 12.7929C30.5974 13.1834 30.5974 13.8166 30.2068 14.2071L28.7926 12.7929ZM25.2068 19.2071C24.8163 19.5976 24.1831 19.5976 23.7926 19.2071C23.4021 18.8166 23.4021 18.1834 23.7926 17.7929L25.2068 19.2071ZM30.2068 14.2071L25.2068 19.2071L23.7926 17.7929L28.7926 12.7929L30.2068 14.2071Z" fill="white"/>
<path d="M25.2069 12.7929C24.8163 12.4024 24.1832 12.4024 23.7926 12.7929C23.4021 13.1834 23.4021 13.8166 23.7926 14.2071L25.2069 12.7929ZM28.7926 19.2071C29.1832 19.5976 29.8163 19.5976 30.2069 19.2071C30.5974 18.8166 30.5974 18.1834 30.2069 17.7929L28.7926 19.2071ZM23.7926 14.2071L28.7926 19.2071L30.2069 17.7929L25.2069 12.7929L23.7926 14.2071Z" fill="white"/>
<path d="M20.5 3C10.8359 3 3 10.8359 3 20.5C3 30.1641 10.8359 38 20.5 38C30.1641 38 38 30.1641 38 20.5C38 10.8359 30.1641 3 20.5 3ZM30.7734 30.7734C29.4375 32.1094 27.8828 33.1562 26.1523 33.8906C24.3672 34.6484 22.4648 35.0312 20.5 35.0312C18.5352 35.0312 16.6328 34.6484 14.8438 33.8906C13.1159 33.1609 11.5464 32.1022 10.2227 30.7734C8.88672 29.4375 7.83984 27.8828 7.10547 26.1523C6.35156 24.3672 5.96875 22.4648 5.96875 20.5C5.96875 18.5352 6.35156 16.6328 7.10937 14.8438C7.83909 13.1159 8.8978 11.5464 10.2266 10.2227C11.5625 8.88672 13.1172 7.83984 14.8477 7.10547C16.6328 6.35156 18.5352 5.96875 20.5 5.96875C22.4648 5.96875 24.3672 6.35156 26.1562 7.10937C27.8841 7.83909 29.4536 8.8978 30.7773 10.2266C32.1133 11.5625 33.1602 13.1172 33.8945 14.8477C34.6484 16.6328 35.0312 18.5352 35.0312 20.5C35.0312 22.4648 34.6484 24.3672 33.8906 26.1562C33.1618 27.8834 32.1029 29.4518 30.7734 30.7734ZM20.5 21.3203C17.1602 21.3203 14.4219 23.9492 14.25 27.2422C14.2479 27.2845 14.2544 27.3268 14.2691 27.3666C14.2839 27.4063 14.3066 27.4426 14.3358 27.4733C14.365 27.504 14.4002 27.5285 14.4392 27.5451C14.4782 27.5618 14.5201 27.5704 14.5625 27.5703H16.4414C16.6055 27.5703 16.7461 27.4453 16.7578 27.2812C16.9063 25.3477 18.5273 23.8203 20.5 23.8203C22.4727 23.8203 24.0977 25.3477 24.2422 27.2812C24.2539 27.4453 24.3945 27.5703 24.5586 27.5703H26.4375C26.4799 27.5704 26.5218 27.5618 26.5608 27.5451C26.5998 27.5285 26.635 27.504 26.6642 27.4733C26.6934 27.4426 26.7161 27.4063 26.7309 27.3666C26.7456 27.3268 26.7521 27.2845 26.75 27.2422C26.5781 23.9492 23.8398 21.3203 20.5 21.3203Z" fill="white"/>
</svg>
